<svg xmlns="http://www.w3.org/2000/svg" xmlns:xlink="http://www.w3.org/1999/xlink" fill="none" version="1.1" width="400" height="400" viewBox="0 0 400 400"><defs><clipPath id="master_svg0_11_0"><rect x="0" y="0" width="400" height="400" rx="0"/></clipPath></defs><g style="mix-blend-mode:passthrough" clip-path="url(#master_svg0_11_0)"><rect x="0" y="0" width="400" height="400" rx="0" fill="#FFFFFF" fill-opacity="0"/><g style="mix-blend-mode:passthrough"><g style="mix-blend-mode:passthrough"><rect x="1" y="1" width="398" height="398" rx="100" fill="#0093D9" fill-opacity="1"/></g><g style="mix-blend-mode:passthrough"><path d="M80,330L200,330L200,300L110,300L110,70L80,70L80,330Z" fill="#FFFFFF" fill-opacity="1"/><path d="M199.5,330L199.5,300L200,300L200,300.5L109.5,300.5L109.5,70L110,70L110,70.5L80,70.5L80,70L80.5,70L80.5,330L80,330L80,329.5L200,329.5L200,330L199.5,330ZM200.5,330.5L79.5,330.5L79.5,69.5L110.5,69.5L110.5,300L110,300L110,299.5L200.5,299.5L200.5,330L200.5,330.5Z" fill="#FFFFFF" fill-opacity="1"/></g><g style="mix-blend-mode:passthrough"><path d="M210,300L230,300L230,330L320,330L320,140L290,140L290,300L240,300L240,140L210,140L210,300Z" fill="#FFFFFF" fill-opacity="1"/><path d="M319.5,330L319.5,140L320,140L320,140.5L290,140.5L290,140L290.5,140L290.5,300.5L239.5,300.5L239.5,140L240,140L240,140.5L210,140.5L210,140L210.5,140L210.5,300L210,300L210,299.5L230.5,299.5L230.5,330L230,330L230,329.5L320,329.5L320,330L319.5,330ZM320.5,330.5L229.5,330.5L229.5,300L230,300L230,300.5L209.5,300.5L209.5,139.5L240.5,139.5L240.5,300L240,300L240,299.5L290,299.5L290,300L289.5,300L289.5,139.5L320.5,139.5L320.5,330L320.5,330.5Z" fill="#FFFFFF" fill-opacity="1"/></g></g></g></svg>